<svg width="86" height="89" viewBox="0 0 86 89" fill="none" xmlns="http://www.w3.org/2000/svg">
<g filter="url(#filter0_bd_1_340)">
<rect x="11" y="3.74506" width="64" height="67.8193" rx="21.3333" fill="url(#paint0_radial_1_340)" fill-opacity="0.7" shape-rendering="crispEdges"/>
<rect x="12.0667" y="4.81172" width="61.8667" height="65.686" rx="20.2667" stroke="white" stroke-width="2.13333" shape-rendering="crispEdges"/>
</g>
<g filter="url(#filter1_d_1_340)">
<rect x="25.1333" y="18.7218" width="35.7333" height="37.8658" rx="13.3333" fill="url(#paint1_linear_1_340)"/>
<rect x="25.9333" y="19.5218" width="34.1333" height="36.2658" rx="12.5333" stroke="white" stroke-opacity="0.3" stroke-width="1.6"/>
</g>
<g clip-path="url(#clip0_1_340)">
<g filter="url(#filter2_d_1_340)">
<path fill-rule="evenodd" clip-rule="evenodd" d="M49.4583 43.8333V40.9166C49.4583 40.5299 49.3047 40.1589 49.0312 39.8854C48.7577 39.612 48.3868 39.4583 48 39.4583H47.1667C47.0009 39.4583 46.8419 39.5242 46.7247 39.6414C46.6075 39.7586 46.5417 39.9176 46.5417 40.0833V44.6666C46.5417 45.0116 46.8217 45.2916 47.1667 45.2916H48C48.3868 45.2916 48.7577 45.138 49.0312 44.8645C49.3047 44.591 49.4583 44.2201 49.4583 43.8333ZM36.3333 45.2916L37.1992 45.2908C37.3591 45.2825 37.5097 45.2131 37.62 45.097C37.7302 44.9808 37.7917 44.8268 37.7917 44.6666V40.0833C37.7917 39.9176 37.7258 39.7586 37.6086 39.6414C37.4914 39.5242 37.3324 39.4583 37.1667 39.4583H36.3333C35.9466 39.4583 35.5756 39.612 35.3021 39.8854C35.0286 40.1589 34.875 40.5299 34.875 40.9166V43.8333C34.875 44.6391 35.5283 45.2916 36.3333 45.2916Z" fill="white"/>
</g>
<path fill-rule="evenodd" clip-rule="evenodd" d="M36.125 41.3333V35.5C36.125 35.3342 36.0592 35.1753 35.9419 35.0581C35.8247 34.9408 35.6658 34.875 35.5 34.875C35.3342 34.875 35.1753 34.9408 35.0581 35.0581C34.9408 35.1753 34.875 35.3342 34.875 35.5V41.3333C34.875 41.4991 34.9408 41.6581 35.0581 41.7753C35.1753 41.8925 35.3342 41.9583 35.5 41.9583C35.6658 41.9583 35.8247 41.8925 35.9419 41.7753C36.0592 41.6581 36.125 41.4991 36.125 41.3333Z" fill="white"/>
<path d="M35.5 36.125C36.3054 36.125 36.9583 35.4721 36.9583 34.6666C36.9583 33.8612 36.3054 33.2083 35.5 33.2083C34.6945 33.2083 34.0416 33.8612 34.0416 34.6666C34.0416 35.4721 34.6945 36.125 35.5 36.125Z" fill="white"/>
<g filter="url(#filter3_d_1_340)">
<path fill-rule="evenodd" clip-rule="evenodd" d="M51.9583 30.5C51.9583 30.1134 51.805 29.7425 51.5308 29.4692C51.3956 29.3336 51.2349 29.226 51.058 29.1527C50.8811 29.0793 50.6915 29.0416 50.5 29.0417H44.6666C44.28 29.0417 43.9091 29.195 43.6358 29.4692C43.5002 29.6044 43.3926 29.7651 43.3193 29.942C43.2459 30.1189 43.2082 30.3085 43.2083 30.5V33.5559C43.2083 34.3609 43.8616 35.0142 44.6666 35.0142H45.2408L46.4466 36.22C46.5047 36.2781 46.5736 36.3242 46.6494 36.3556C46.7253 36.387 46.8066 36.4032 46.8887 36.4032C46.9708 36.4032 47.0521 36.387 47.128 36.3556C47.2038 36.3242 47.2728 36.2781 47.3308 36.22L48.5366 35.0142H50.5C50.8867 35.0142 51.2577 34.8605 51.5312 34.5871C51.8046 34.3136 51.9583 33.9426 51.9583 33.5559V30.5ZM47.7916 45.5V38.8334C47.7916 38.4466 47.638 38.0756 47.3645 37.8022C47.091 37.5287 46.7201 37.375 46.3333 37.375H38C37.6132 37.375 37.2423 37.5287 36.9688 37.8022C36.6953 38.0756 36.5416 38.4466 36.5416 38.8334V45.5C36.5416 46.3059 37.195 46.9584 38 46.9584H46.3333C46.7201 46.9584 47.091 46.8047 47.3645 46.5312C47.638 46.2577 47.7916 45.8868 47.7916 45.5ZM39.6425 43.4125C39.9737 43.7444 40.3672 44.0076 40.8003 44.1872C41.2334 44.3669 41.6977 44.4593 42.1666 44.4593C42.6355 44.4593 43.0998 44.3669 43.5329 44.1872C43.9661 44.0076 44.3595 43.7444 44.6908 43.4125C44.7488 43.3545 44.7948 43.2857 44.8262 43.2099C44.8576 43.1341 44.8737 43.0529 44.8737 42.9709C44.8737 42.8888 44.8576 42.8076 44.8262 42.7318C44.7948 42.656 44.7488 42.5872 44.6908 42.5292C44.6328 42.4712 44.5639 42.4252 44.4882 42.3938C44.4124 42.3624 44.3312 42.3462 44.2491 42.3462C44.1671 42.3462 44.0859 42.3624 44.0101 42.3938C43.9343 42.4252 43.8655 42.4712 43.8075 42.5292C43.372 42.9639 42.7819 43.208 42.1666 43.208C41.5514 43.208 40.9612 42.9639 40.5258 42.5292C40.4678 42.4712 40.3989 42.4252 40.3232 42.3938C40.2474 42.3624 40.1662 42.3462 40.0841 42.3462C40.0021 42.3462 39.9209 42.3624 39.8451 42.3938C39.7693 42.4252 39.7005 42.4712 39.6425 42.5292C39.5845 42.5872 39.5385 42.656 39.5071 42.7318C39.4757 42.8076 39.4595 42.8888 39.4595 42.9709C39.4595 43.0529 39.4757 43.1341 39.5071 43.2099C39.5385 43.2857 39.5845 43.3545 39.6425 43.4125ZM40.0833 39.6667C40.3043 39.6667 40.5163 39.7545 40.6725 39.9108C40.8288 40.067 40.9166 40.279 40.9166 40.5C40.9166 40.721 40.8288 40.933 40.6725 41.0893C40.5163 41.2456 40.3043 41.3334 40.0833 41.3334C39.8623 41.3334 39.6503 41.2456 39.494 41.0893C39.3378 40.933 39.25 40.721 39.25 40.5C39.25 40.279 39.3378 40.067 39.494 39.9108C39.6503 39.7545 39.8623 39.6667 40.0833 39.6667ZM44.25 39.6667C44.471 39.6667 44.6829 39.7545 44.8392 39.9108C44.9955 40.067 45.0833 40.279 45.0833 40.5C45.0833 40.721 44.9955 40.933 44.8392 41.0893C44.6829 41.2456 44.471 41.3334 44.25 41.3334C44.0289 41.3334 43.817 41.2456 43.6607 41.0893C43.5044 40.933 43.4166 40.721 43.4166 40.5C43.4166 40.279 43.5044 40.067 43.6607 39.9108C43.817 39.7545 44.0289 39.6667 44.25 39.6667Z" fill="white"/>
</g>
</g>
<defs>
<filter id="filter0_bd_1_340" x="-31.1333" y="-38.3883" width="148.267" height="152.086" filterUnits="userSpaceOnUse" color-interpolation-filters="sRGB">
<feFlood flood-opacity="0" result="BackgroundImageFix"/>
<feGaussianBlur in="BackgroundImageFix" stdDeviation="21.0667"/>
<feComposite in2="SourceAlpha" operator="in" result="effect1_backgroundBlur_1_340"/>
<feColorMatrix in="SourceAlpha" type="matrix" values="0 0 0 0 0 0 0 0 0 0 0 0 0 0 0 0 0 0 127 0" result="hardAlpha"/>
<feOffset dy="6.4"/>
<feGaussianBlur stdDeviation="5.06667"/>
<feComposite in2="hardAlpha" operator="out"/>
<feColorMatrix type="matrix" values="0 0 0 0 0.0867708 0 0 0 0 0.115317 0 0 0 0 0.141667 0 0 0 0.08 0"/>
<feBlend mode="normal" in2="effect1_backgroundBlur_1_340" result="effect2_dropShadow_1_340"/>
<feBlend mode="normal" in="SourceGraphic" in2="effect2_dropShadow_1_340" result="shape"/>
</filter>
<filter id="filter1_d_1_340" x="13.4" y="12.8551" width="59.1999" height="61.3325" filterUnits="userSpaceOnUse" color-interpolation-filters="sRGB">
<feFlood flood-opacity="0" result="BackgroundImageFix"/>
<feColorMatrix in="SourceAlpha" type="matrix" values="0 0 0 0 0 0 0 0 0 0 0 0 0 0 0 0 0 0 127 0" result="hardAlpha"/>
<feOffset dy="5.86667"/>
<feGaussianBlur stdDeviation="5.86667"/>
<feComposite in2="hardAlpha" operator="out"/>
<feColorMatrix type="matrix" values="0 0 0 0 1 0 0 0 0 0.301961 0 0 0 0 0 0 0 0 0.4 0"/>
<feBlend mode="normal" in2="BackgroundImageFix" result="effect1_dropShadow_1_340"/>
<feBlend mode="normal" in="SourceGraphic" in2="effect1_dropShadow_1_340" result="shape"/>
</filter>
<filter id="filter2_d_1_340" x="34.3417" y="39.4583" width="15.65" height="6.89998" filterUnits="userSpaceOnUse" color-interpolation-filters="sRGB">
<feFlood flood-opacity="0" result="BackgroundImageFix"/>
<feColorMatrix in="SourceAlpha" type="matrix" values="0 0 0 0 0 0 0 0 0 0 0 0 0 0 0 0 0 0 127 0" result="hardAlpha"/>
<feOffset dy="0.533333"/>
<feGaussianBlur stdDeviation="0.266667"/>
<feComposite in2="hardAlpha" operator="out"/>
<feColorMatrix type="matrix" values="0 0 0 0 0 0 0 0 0 0 0 0 0 0 0 0 0 0 0.15 0"/>
<feBlend mode="normal" in2="BackgroundImageFix" result="effect1_dropShadow_1_340"/>
<feBlend mode="normal" in="SourceGraphic" in2="effect1_dropShadow_1_340" result="shape"/>
</filter>
<filter id="filter3_d_1_340" x="36.0083" y="29.0417" width="16.4833" height="18.9834" filterUnits="userSpaceOnUse" color-interpolation-filters="sRGB">
<feFlood flood-opacity="0" result="BackgroundImageFix"/>
<feColorMatrix in="SourceAlpha" type="matrix" values="0 0 0 0 0 0 0 0 0 0 0 0 0 0 0 0 0 0 127 0" result="hardAlpha"/>
<feOffset dy="0.533333"/>
<feGaussianBlur stdDeviation="0.266667"/>
<feComposite in2="hardAlpha" operator="out"/>
<feColorMatrix type="matrix" values="0 0 0 0 0 0 0 0 0 0 0 0 0 0 0 0 0 0 0.15 0"/>
<feBlend mode="normal" in2="BackgroundImageFix" result="effect1_dropShadow_1_340"/>
<feBlend mode="normal" in="SourceGraphic" in2="effect1_dropShadow_1_340" result="shape"/>
</filter>
<radialGradient id="paint0_radial_1_340" cx="0" cy="0" r="1" gradientUnits="userSpaceOnUse" gradientTransform="translate(43 37.6547) rotate(90) scale(33.9097 32)">
<stop stop-color="white"/>
<stop offset="1" stop-color="white"/>
</radialGradient>
<linearGradient id="paint1_linear_1_340" x1="43" y1="18.7218" x2="43" y2="56.5876" gradientUnits="userSpaceOnUse">
<stop stop-color="#FF9252"/>
<stop offset="1" stop-color="#FF3F15"/>
</linearGradient>
<clipPath id="clip0_1_340">
<rect width="20" height="20" fill="white" transform="translate(33 28)"/>
</clipPath>
</defs>
</svg>
