<svg width="86" height="89" viewBox="0 0 86 89" fill="none" xmlns="http://www.w3.org/2000/svg">
<g filter="url(#filter0_bd_1_422)">
<rect x="11" y="4.29504" width="64" height="67.8193" rx="21.3333" fill="url(#paint0_radial_1_422)" fill-opacity="0.7" shape-rendering="crispEdges"/>
<rect x="12.0667" y="5.36171" width="61.8667" height="65.686" rx="20.2667" stroke="white" stroke-width="2.13333" shape-rendering="crispEdges"/>
</g>
<g filter="url(#filter1_d_1_422)">
<rect x="25.1338" y="19.2718" width="35.7333" height="37.8658" rx="13.3333" fill="url(#paint1_linear_1_422)"/>
<rect x="25.9338" y="20.0718" width="34.1333" height="36.2658" rx="12.5333" stroke="white" stroke-opacity="0.3" stroke-width="1.6"/>
</g>
<g clip-path="url(#clip0_1_422)">
<g filter="url(#filter2_d_1_422)">
<path fill-rule="evenodd" clip-rule="evenodd" d="M43 29C44.8998 29 46.4329 30.5382 46.4329 32.4329C46.4329 34.3328 44.8998 35.871 43 35.871C41.1053 35.871 39.5671 34.3328 39.5671 32.4329C39.5671 30.5382 41.1053 29 43 29ZM36.7351 33.4516C38.2479 33.4516 39.4703 34.674 39.4703 36.1868C39.4703 37.6944 38.2479 38.9219 36.7351 38.9219C35.2224 38.9219 34 37.6944 34 36.1868C34 34.674 35.2224 33.4516 36.7351 33.4516ZM35.8285 34.5365H37.6418C38.0492 34.5365 38.3803 34.8727 38.3803 35.2801V37.0883C38.3803 37.4958 38.0492 37.8319 37.6418 37.8319H35.8285C35.4211 37.8319 35.09 37.4958 35.09 37.0883V35.2801C35.09 34.8727 35.4211 34.5365 35.8285 34.5365ZM37.6927 34.8727C37.8557 34.8727 37.9881 35.0051 37.9881 35.1681C37.9881 35.3311 37.8557 35.4635 37.6927 35.4635C37.5297 35.4635 37.4024 35.3311 37.4024 35.1681C37.4024 35.0051 37.5297 34.8727 37.6927 34.8727ZM36.7351 35.4329C37.1528 35.4329 37.489 35.7691 37.489 36.1868C37.489 36.5993 37.1528 36.9406 36.7351 36.9406C36.3175 36.9406 35.9813 36.5993 35.9813 36.1868C35.9813 35.7691 36.3175 35.4329 36.7351 35.4329ZM49.2649 33.4516C50.7776 33.4516 52 34.674 52 36.1868C52 37.6944 50.7776 38.9219 49.2649 38.9219C47.7572 38.9219 46.5297 37.6944 46.5297 36.1868C46.5297 34.674 47.7572 33.4516 49.2649 33.4516ZM48.8523 34.5823L50.5993 35.8302C50.7165 35.9168 50.7827 36.039 50.7827 36.1868C50.7827 36.3294 50.7165 36.4567 50.5993 36.5382L48.8523 37.7861C48.7148 37.8829 48.5467 37.8981 48.399 37.8217C48.2513 37.7453 48.1596 37.6027 48.1596 37.4346V34.9338C48.1596 34.7708 48.2513 34.6231 48.399 34.5467C48.5467 34.4703 48.7148 34.4856 48.8523 34.5823ZM43 37.5976C45.5976 37.5976 47.7012 39.7012 47.7012 42.2988C47.7012 44.8964 45.5976 47 43 47C40.4024 47 38.2988 44.8964 38.2988 42.2988C38.2988 39.7012 40.4024 37.5976 43 37.5976ZM41.5229 41.9117H41.8947C42.017 41.9117 42.1138 41.8098 42.1138 41.6876V40.5518C42.1138 39.8591 42.3684 39.3752 42.7708 39.1002C43.1986 38.7997 43.8659 38.7385 44.5331 38.9066C44.635 38.9321 44.7012 39.0238 44.7012 39.1256L44.6757 39.9202C44.6706 39.9864 44.6452 40.0374 44.5942 40.0832C44.5433 40.1239 44.4873 40.1392 44.4211 40.129C43.8812 40.0475 43.3973 40.1392 43.3973 40.6486V41.6876C43.3973 41.8098 43.4992 41.9117 43.6163 41.9117H44.1409C44.2632 41.9117 44.365 42.0085 44.365 42.1307V42.7012C44.365 42.8234 44.2632 42.9202 44.1409 42.9202H43.6163C43.4992 42.9202 43.3973 43.017 43.3973 43.1392V45.5637C43.3973 45.6808 43.3005 45.7827 43.1783 45.7827H42.3328C42.2156 45.7827 42.1138 45.6808 42.1138 45.5637V43.1392C42.1138 43.017 42.017 42.9202 41.8947 42.9202H41.5229C41.4007 42.9202 41.2988 42.8234 41.2988 42.7012V42.1307C41.2988 42.0085 41.4007 41.9117 41.5229 41.9117ZM45.1596 30.6248L44.4516 30.8132C44.4516 30.8132 43.2598 29.9932 42.8268 31.5772C42.8217 31.6537 42.7555 31.6587 42.7453 31.6587C42.5976 31.6791 41.6197 31.7402 41.0136 30.8795C40.9677 30.8183 40.8964 30.8642 40.9015 30.9253C40.9168 31.2716 40.9677 31.6384 41.1664 31.9185C41.1766 31.9287 41.1766 31.9389 41.1715 31.9491C41.1664 31.9593 41.1562 31.9643 41.146 31.9593L40.7742 31.9338C40.764 31.9338 40.7538 31.9338 40.7487 31.944C40.7436 31.9491 40.7436 31.9593 40.7487 31.9643C40.8506 32.2852 41.0238 32.5501 41.3039 32.7284C41.309 32.7334 41.3141 32.7436 41.3141 32.7538C41.3141 32.764 41.309 32.7691 41.3039 32.7742L40.9576 32.9576C40.9525 32.9626 40.9474 32.9677 40.9423 32.9728C40.9423 32.983 40.9423 32.9881 40.9474 32.9932C41.0951 33.2683 41.365 33.3905 41.7674 33.3497C41.7776 33.3497 41.7878 33.3548 41.7929 33.365C41.798 33.3701 41.798 33.3854 41.7929 33.3905C41.6808 33.5891 41.5127 33.7827 40.9677 33.8438C40.7436 33.8642 40.7284 33.9559 40.8506 34.0526C41.3803 34.4652 44.8183 34.4703 44.6197 31.4856L45.236 31.2564C45.2513 31.2564 45.2564 31.2411 45.2564 31.2309C45.2564 31.2207 45.2462 31.2105 45.2309 31.2054L44.7674 31.1392C44.7572 31.1392 44.7521 31.1341 44.747 31.1239C44.7419 31.1138 44.747 31.1036 44.7521 31.0985L45.1851 30.6655C45.1952 30.6604 45.1952 30.6452 45.1902 30.635C45.1851 30.6248 45.1698 30.6197 45.1596 30.6248Z" fill="white"/>
</g>
</g>
<defs>
<filter id="filter0_bd_1_422" x="-31.1333" y="-37.8383" width="148.267" height="152.086" filterUnits="userSpaceOnUse" color-interpolation-filters="sRGB">
<feFlood flood-opacity="0" result="BackgroundImageFix"/>
<feGaussianBlur in="BackgroundImageFix" stdDeviation="21.0667"/>
<feComposite in2="SourceAlpha" operator="in" result="effect1_backgroundBlur_1_422"/>
<feColorMatrix in="SourceAlpha" type="matrix" values="0 0 0 0 0 0 0 0 0 0 0 0 0 0 0 0 0 0 127 0" result="hardAlpha"/>
<feOffset dy="6.4"/>
<feGaussianBlur stdDeviation="5.06667"/>
<feComposite in2="hardAlpha" operator="out"/>
<feColorMatrix type="matrix" values="0 0 0 0 0.0867708 0 0 0 0 0.115317 0 0 0 0 0.141667 0 0 0 0.08 0"/>
<feBlend mode="normal" in2="effect1_backgroundBlur_1_422" result="effect2_dropShadow_1_422"/>
<feBlend mode="normal" in="SourceGraphic" in2="effect2_dropShadow_1_422" result="shape"/>
</filter>
<filter id="filter1_d_1_422" x="13.4005" y="13.4051" width="59.2" height="61.3325" filterUnits="userSpaceOnUse" color-interpolation-filters="sRGB">
<feFlood flood-opacity="0" result="BackgroundImageFix"/>
<feColorMatrix in="SourceAlpha" type="matrix" values="0 0 0 0 0 0 0 0 0 0 0 0 0 0 0 0 0 0 127 0" result="hardAlpha"/>
<feOffset dy="5.86667"/>
<feGaussianBlur stdDeviation="5.86667"/>
<feComposite in2="hardAlpha" operator="out"/>
<feColorMatrix type="matrix" values="0 0 0 0 0.384314 0 0 0 0 0.713726 0 0 0 0 0.333333 0 0 0 0.4 0"/>
<feBlend mode="normal" in2="BackgroundImageFix" result="effect1_dropShadow_1_422"/>
<feBlend mode="normal" in="SourceGraphic" in2="effect1_dropShadow_1_422" result="shape"/>
</filter>
<filter id="filter2_d_1_422" x="33.4667" y="29" width="19.0667" height="19.0667" filterUnits="userSpaceOnUse" color-interpolation-filters="sRGB">
<feFlood flood-opacity="0" result="BackgroundImageFix"/>
<feColorMatrix in="SourceAlpha" type="matrix" values="0 0 0 0 0 0 0 0 0 0 0 0 0 0 0 0 0 0 127 0" result="hardAlpha"/>
<feOffset dy="0.533333"/>
<feGaussianBlur stdDeviation="0.266667"/>
<feComposite in2="hardAlpha" operator="out"/>
<feColorMatrix type="matrix" values="0 0 0 0 0 0 0 0 0 0 0 0 0 0 0 0 0 0 0.15 0"/>
<feBlend mode="normal" in2="BackgroundImageFix" result="effect1_dropShadow_1_422"/>
<feBlend mode="normal" in="SourceGraphic" in2="effect1_dropShadow_1_422" result="shape"/>
</filter>
<radialGradient id="paint0_radial_1_422" cx="0" cy="0" r="1" gradientUnits="userSpaceOnUse" gradientTransform="translate(43 38.2047) rotate(90) scale(33.9097 32)">
<stop stop-color="white"/>
<stop offset="1" stop-color="white"/>
</radialGradient>
<linearGradient id="paint1_linear_1_422" x1="43.0005" y1="19.2718" x2="43.0005" y2="57.1376" gradientUnits="userSpaceOnUse">
<stop stop-color="#90DF75"/>
<stop offset="1" stop-color="#62B655"/>
</linearGradient>
<clipPath id="clip0_1_422">
<rect width="18" height="18" fill="white" transform="translate(34 29)"/>
</clipPath>
</defs>
</svg>
